<?xml version="1.0" encoding="utf-8"?>
<!-- Generator: Adobe Illustrator 26.1.0, SVG Export Plug-In . SVG Version: 6.00 Build 0)  -->
<svg version="1.1" id="Layer_1" xmlns="http://www.w3.org/2000/svg" xmlns:xlink="http://www.w3.org/1999/xlink" x="0px" y="0px"
	 viewBox="0 0 800 800" style="enable-background:new 0 0 800 800;" xml:space="preserve">
<style type="text/css">
	.st0{fill:url(#SVGID_1_);}
	.st1{fill:url(#SVGID_00000099624382964587040440000008082231089488828319_);}
	.st2{fill:#8E8E8E;}
</style>
<g>
	<linearGradient id="SVGID_1_" gradientUnits="userSpaceOnUse" x1="639.3893" y1="274.6616" x2="188.9501" y2="601.0273">
		<stop  offset="0" style="stop-color:#49FFBA"/>
		<stop  offset="0.371" style="stop-color:#92278F"/>
		<stop  offset="1" style="stop-color:#00FFFF"/>
	</linearGradient>
	<path class="st0" d="M424.72,424.82c-0.69,0.17-1.28,0.41-1.73,0.71c-3.75,2.11-5.3,4.63-4.6,7.5c0.59,2.43,2.26,3.67,4.95,3.7
		h0.05l0.05-0.02c1.39-0.52,2.24-1.01,2.59-1.49c2.3-1.92,3.12-4.33,2.42-7.19C427.53,425.53,426.26,424.44,424.72,424.82z"/>
	
		<linearGradient id="SVGID_00000112629167869415977090000005561450199052460479_" gradientUnits="userSpaceOnUse" x1="612.1346" y1="237.0453" x2="161.6961" y2="563.4104">
		<stop  offset="0" style="stop-color:#49FFBA"/>
		<stop  offset="0.371" style="stop-color:#92278F"/>
		<stop  offset="1" style="stop-color:#00FFFF"/>
	</linearGradient>
	<path style="fill:url(#SVGID_00000112629167869415977090000005561450199052460479_);" d="M622.21,401.73
		c-0.51-1.18-1.06-2.32-1.78-3.39c1.97,2.9,0.1-0.22-0.43-1.1c-1.53-2.51-4.39-4.3-6.74-5.94c-10.13-7.05-21.59-12.41-32.71-17.66
		c-37.87-17.87-77.84-31.79-118.49-41.77c-16.8-4.12-34.31-7.75-51.97-10.06c9.77-9.38,17.78-20.25,21.96-34.08
		c6.02-19.92-0.24-47.08-18.84-58.27c-17.93-10.79-45.06-5.9-61.72,5.05c-14.86,9.77-25.68,46.66,0.18,48.37
		c4.8,0.32,4.77-7.14,0-7.46c-14.46-0.96-6.73-23.34-1.36-30.06c4.96-6.21,13.55-9.41,20.89-11.59c17.04-5.05,39.14-3.87,48.8,13.12
		c10.07,17.69,7.96,37.86-2.41,54.81c-4.51,7.38-10.33,13.52-16.77,19.03c-17.35-1.78-34.78-2.14-51.77-0.26
		c-4.64,0.51-12.03,1.21-12.57,7.13c-0.46,4.96,7.33,7.77,10.76,9.2c6.8,2.82,13.79,5.3,20.9,7.55
		c-53.67,37.37-106.52,76.12-158.41,115.9c-20.17,15.46-56.78,35.71-45.8,66.62c5.75,16.2,19.75,10.02,30.92,4.84
		c17.19-7.96,34.95-16.65,50.28-28.14c-0.33,17.1,1.53,34.15,5.58,50.73c1.6,6.57,3.02,11.13,4.23,13.58
		c3.75,7.1,7.78,10.69,11.96,10.69c0.61,0,1.23-0.07,1.84-0.23c4.09-1,6.8-5.07,8.06-12.14c0.36-11.1-0.96-22.86-3.91-34.95
		c-2.17-8.89-5.58-17.23-10.16-24.81c-2.99-3.9-4.22-5.43-4.76-6.03c7.21-0.47,11.37-0.83,12.36-1.08l3.58-0.88
		c3.04-1.34,5.53-2.61,7.48-3.82c0.09,0.64,0.19,1.28,0.32,1.91c0.29,1.18,0.81,2.49,1.58,3.91c2.74,4.03,5.72,6.08,8.86,6.08
		c0.6,0,1.23-0.08,1.84-0.23l0.17-0.04c4.95-1.21,8.71-5.89,11.17-13.95c0.72-4,1-5.69,1.08-6.43c5.31,7.49,11.76,10.39,19.13,8.59
		l0.66-0.16c0.68-0.17,1.61-0.47,2.82-0.92c5.03-3.08,8.89-6.99,11.47-11.59c3.36,2.71,3.94,3.37,4.01,3.51l0.05,0.2
		c0.02,0.07,0.04,0.38-0.44,1.27c-6.55,11.81-8.96,21.53-7.16,28.9c0.97,3.97,3.64,6.61,7.95,7.85c0.05,0.19,0.25,0.29,0.31,0.32
		l0.55,0.28l-0.15-0.64c0.25-0.06,0.76-0.15,1.82-0.23l0.09-0.02c0.04-0.02,0.08-0.04,0.12-0.05l0.2,0.81l1.69-1.7
		c4.61-2.37,7.49-4.96,8.57-7.71c2.07-2.63,2.98-7.97,2.72-15.88c0.03-0.09,0.05-0.2,0.07-0.37l0.05-0.41l-0.14,0.04l-0.02-0.51
		l-0.25,0.53c-0.05-0.22-0.1-0.53-0.17-0.96l0.58-0.14l-0.88-1.28l-0.69-1.7l-4.69-8.91c3.01-4.11,7.84-8.15,14.33-12.05
		c0.46,5.34,1.5,11.39,3.15,18.14c0.71,2.42,1.55,4.89,2.49,7.34c1.4,4.63,3.09,6.89,5.14,6.89c0.22,0,0.45-0.03,0.68-0.08l0.1-0.05
		c0.77-0.56,1.42-1.33,1.94-2.29l0.04-0.07l-1.02-10.8c0.69-15.38,2.84-19.1,4.52-19.51l0.11-0.03c0.01,0,0.07,0.01,0.3,0.1
		l0.08,0.03l0.09-0.02c0.19,0,1.1,0.39,4.86,5.4c5.41,9.47,11.18,13.55,17.11,12.1c3.9-0.95,7.05-3.22,9.44-6.72
		c1.47,2.62,3.61,3.98,6.4,3.98c0.82,0,1.7-0.12,2.63-0.34c5.87-1.43,11.92-7.36,18.03-17.6c0.01,0.02,0.01,0.04,0.01,0.06
		l0.25,1.03c0.28,1.13,0.61,2.2,1.01,3.21c2.34,4.27,5.11,6.44,8.22,6.44c0.57,0,1.16-0.07,1.76-0.22l1.48-0.36
		c4.35-1.06,7.69-4.74,9.94-10.97c0.93-3.82,1.5-4.24,1.65-4.27c0.4-0.1,0.98-0.17,1.78-0.21c10.31-2.52,19.27-8.69,26.65-18.28
		c0.04,6.72,0.31,14.37,0.8,22.89l0.02,0.09c0.86,2.11,1.97,3.18,3.29,3.18c0.2,0,0.42-0.03,0.63-0.08l0.33-0.08
		c0.81-0.2,1.57-1.08,2.33-2.73c3.78-13.56,6.22-21.76,7.26-24.41c1.52-4.87,3.47-7.62,5.79-8.19l0.75-0.18
		c0.55-0.07,1.13,0.16,1.71,0.62c0.64,0.77,3.32,5.54,7.96,14.18c4.5,7.74,10.34,10.81,17.29,9.11c2.38-0.58,5.38-2.22,8.88-4.84
		c2.54-1.25,5.3-5.08,8.45-11.71c1.29-3.31,2.33-6.45,3.14-9.44c0.82,0.48,1.65,0.9,2.5,1.21c11.41,4.21,25.08-1.51,36.32-4.24
		C618.13,428.07,627.62,414.35,622.21,401.73z M346.56,328.36c-0.12-0.06-0.24-0.13-0.37-0.19c2.12-0.42,4.51-0.42,6.21-0.57
		c13.02-1.1,26.24-0.77,39.34,0.25c-5.18,3.8-10.53,7.39-15.78,11.01C365.73,336.19,355.68,332.94,346.56,328.36z M459.07,448.33
		c0.23-0.06,0.46-0.08,0.67-0.08c1.37,0,2.37,1.26,2.97,3.71c0.4,3.52,0.5,4.73,0.51,5.11c-0.32,0.06-0.95-0.08-1.82-0.43
		c-2.55-0.98-4.03-2.26-4.41-3.8C456.43,450.55,457.12,449.07,459.07,448.33z M451.96,456.78c1.64,2.6,3.63,4.49,5.98,5.55
		c3.04,0.99,3.91,1.33,4.16,1.45l0.05,0.45c-1.55,5.34-3.65,8.37-6.26,9.01c-0.54,0.13-0.94,0.15-1.29,0.02
		c-1.92-0.49-3.25-2.19-3.94-5.01c-0.41-2.87-0.51-3.46-0.53-3.61c0.11-1.9,0.23-3.39,0.36-4.61
		C451.07,458.94,451.56,457.86,451.96,456.78z M378.88,424.8c-0.24-1,0.34-5.49,4.53-21.21c1.69-6.02,2.51-8.58,2.91-9.63
		c0.07,4-0.19,8.5-0.79,13.38c-1.34,11.15-3.46,21.17-6.32,29.82c-1.01,3.98-1.85,7.01-2.5,9.08c0.32-5.11,1.05-12.27,2.18-21.33
		l0.01-0.05L378.88,424.8z M343.5,515.05l-0.38-1.54c-0.69-2.85-0.6-5.69,0.29-8.47c2.17-7.14,4.37-11.91,6.53-14.18
		c0.35,0.03,1.35,0.77,3.53,6.51c1.01,4.15,1.14,7.62,0.4,10.28c-2.38,5.24-5.15,8.28-8.22,9.03
		C344.73,516.9,344.02,516.34,343.5,515.05z M339.11,471.69c-2.21-2.16-3.56-4.2-4.02-6.09l-0.1-0.4c-0.1-3.36,0.48-5.22,1.65-5.51
		l0.17,0c1.86,0,2.92,0.62,3.23,1.88C340.59,463.82,340.28,467.22,339.11,471.69z M287.29,494.08c-0.51-2.07-0.41-4.42,0.3-7.03
		c1.45-7.93,5.03-12.57,10.65-13.8c1.3-0.23,1.95-0.39,2.3-0.51l0.21,0.86c0.29,1.2,0.29,3.69,0,7.41
		c-1.45,11.25-4.08,17.41-7.82,18.32l-0.77,0.19C289.7,499.2,288.11,497.42,287.29,494.08z M251.14,502.29c0.12,0,0.21,0,0.28,0
		c3.33,3.51,6.06,6.78,8.1,9.68c3.01,6.33,5.58,13.8,7.63,22.2c1.85,7.59,3.02,16.61,3.46,26.79c-0.28,6.5-1.37,10.03-3.25,10.49
		l-0.49,0.12c-0.28,0.07-0.84-0.05-1.61-0.34c-3.55-3.09-6.09-7.67-7.55-13.63l-1.05-4.31c-3.57-14.64-5.41-30.26-5.46-46.42
		C250.91,503.37,251.05,502.5,251.14,502.29z M251.35,488.83c0.15-8.65,1.26-17.49,3.3-26.28c2.91-10.23,4.66-13.34,5.64-14.08
		c0.06,0.32,0.19,0.83,0.45,1.72l0.24,0.98c0.38,1.57,0.34,4.12-0.13,7.61c-0.44,4.42-1.59,9.28-3.4,14.43
		C254.59,481.22,252.55,486.46,251.35,488.83z M589.76,427.3c-7.13,1.73-15.85,4.28-21.7-1.03c0.11-0.82,0.2-1.62,0.27-2.41
		c0.06-0.18,0.12-0.36,0.15-0.56c0.76-4.65,0.85-9.49-2.5-13.12c-2.92-3.17-7.65-1.24-8.96,2.26c-2.09,5.58-0.06,12.11,3.81,16.92
		c-0.7,3.09-1.8,6.66-3.3,10.7c-3.41,7.55-7.7,12-12.76,13.24l-0.16,0.04c-0.77,0.18-1.52,0.28-2.23,0.28
		c-1.62,0-3.12-0.5-4.45-1.49l-0.07-0.05l-0.09,0c-0.69-0.02-2.84-1.98-9.51-14.88c-3.08-6.11-6.91-8.67-11.35-7.58l-0.66,0.16
		c-3.88,0.95-6.97,4.47-9.17,10.49c-1.19,3.76-2.13,6.64-2.81,8.59c-0.3-5.6-0.4-9.99-0.3-13.04l-0.25-1.04c0,0,0-0.01,0-0.01
		c0-0.01-0.01-0.01-0.01-0.02l-0.17-0.7l-0.03-0.08c-0.07-0.11-0.16-0.21-0.24-0.31c-0.45-0.79-1.13-1.36-2.06-1.68l-0.08-0.03
		l-0.66,0.16c-1.03,0.25-2.11,1.1-3.3,2.63c-7.83,12.26-16.09,19.52-24.53,21.59l-2.46,0.6c-0.35,0.09-0.53,0.02-0.58-0.17
		c-0.12-2.41-0.42-4.61-0.89-6.53c-0.38-1.56-1.02-3.09-1.9-4.53c-2.42-3.83-5.96-5.23-10.46-4.13c-1.68,0.41-3.61,1.44-5.76,3.06
		l-0.06,0.06c-0.06,0.08-0.11,0.17-0.16,0.25l-1.11,0.27l-0.05,0.14c-0.61,1.59-1.22,3.08-1.83,4.52c-0.52,1.03-0.97,2.06-1.36,3.11
		c-0.45,0.99-0.9,1.95-1.34,2.85c-1.2,1.33-1.83,2.45-1.92,3.43c-6.48,12.25-12.27,19.07-17.19,20.27c-1.67,0.41-2.62,0-2.94-1.33
		c-0.42-1.74-0.58-3.72-0.51-5.85c0.47-2.25,0.83-4.45,1.08-6.59c0.58-2.05,0.9-5.22,0.99-9.64l0-0.04l-0.36-1.47
		c-0.47-1.91-1.7-2.9-3.67-2.92l-0.04,0l-0.34,0.08c-1.48,0.46-1.97,0.75-1.9,1.16c-0.23,0.78-0.64,3.59-2.03,14.11
		c-0.07,1.76-0.08,3.37-0.06,4.85c-0.25,1.03-0.51,2.07-0.82,3.1c-2.21,4.77-4.59,7.49-7.06,8.09l-0.99,0.24
		c-0.63,0.15-1.25,0.14-1.88-0.05c-1.9-0.48-4.31-2.95-7.17-7.33c-4.23-7.21-8.03-10.71-11.63-10.71c-0.43,0-0.85,0.05-1.27,0.15
		c-2.98,0.73-5.42,3.62-7.25,8.65c-0.47,3.32-0.94,5.86-1.41,7.58c-0.81-4.78-1.19-8.12-1.13-9.93l0-0.04l-0.01-0.04
		c-0.19-0.78,0.57-4.48,5.29-17.68c3.82-10.99,6.45-19.76,7.83-26.07c3.98-19.72,5.15-33.19,3.48-40.01
		c-0.6-2.48-2.06-3.73-4.33-3.73c-0.21,0-0.43,0.01-0.69,0.04l-0.37,0.09c-1.53,0.37-3.01,1.85-4.42,4.4
		c-1.4,2.92-3.08,8.02-4.98,15.13c-2.72,8.42-5.36,27.55-7.85,56.84c-0.19,1.32-0.3,2.76-0.37,4.25c-4.16,2.23-7.67,4.39-10.37,6.45
		c-6.61,5.82-8.63,7.57-9.08,7.92l-2.19-0.7l0.04,0.17c-0.56-0.55-1.41-1.31-2.54-2.3c2-6.6,2.53-11.93,1.57-15.85
		c-1.35-5.52-4.67-8.33-9.87-8.33c-0.46,0-0.95,0.02-1.48,0.07c-2.5,0.61-4.37,2.69-5.58,6.21c-0.71,2.97-0.85,5.78-0.42,8.35
		l-0.01-0.01l0.03,0.15c0.06,0.37,0.14,0.74,0.23,1.1l0.02,0.06c0.04,0.17,0.08,0.35,0.14,0.58c0.91,2.46,2.9,5.28,5.91,8.4
		c-3.52,5.87-7.28,9.36-11.23,10.32c-5.02,1.23-9.29-0.87-12.7-6.18c-2.82-6.62-4.46-10.26-5.03-11.13
		c-1.79-2.68-3.98-4.04-6.53-4.04c-0.59,0-1.22,0.08-1.84,0.22l-2.26,0.44c-4.85,1.29-8.63,4.61-11.25,9.88
		c-1.32,3.06-2.21,6.02-2.73,8.9c-4.05,3.54-7.81,5.75-11.18,6.57l-0.82,0.2c-1.22,0.3-2.34,0.5-3.33,0.6
		c-6.35,0.51-8.54,0.71-9.34,0.83c0.02-0.92,0.8-3.45,3.98-10.07c5.45-16.34,7.37-28.09,5.7-34.92c-1.28-5.25-3.56-7.54-6.68-6.78
		l-0.17,0.04c-3.23,0.79-5.95,4.3-8.09,10.44c-2.36,6.91-4.07,14.03-5.08,21.17c-0.96,7.53-1.49,14.42-1.58,20.57
		c-14.06,11.49-30.84,19.93-47.03,27.82c-5.43,2.64-10.91,5.17-16.44,7.59c-8.76,3.83-11.89-6.77-12.17-13.61
		c-0.52-13.22,8.89-21.19,17.99-28.71c9.94-8.21,20.18-16.05,30.42-23.88c52.23-39.9,105.36-78.85,159.4-116.28
		c23.54,6.7,48.12,11.1,71.64,15.88c4.69,0.95,6.69-6.23,1.98-7.19c-14.76-3-29.47-6.28-44.13-9.74
		c-6.84-1.61-13.95-3.13-21.09-4.79c5.69-3.98,11.3-8.06,16.61-12.43c1.82,0.19,3.63,0.38,5.44,0.59
		c46.3,5.3,91.83,19.14,135.1,36.09c17.56,6.88,34.88,14.52,51.56,23.34c5.19,2.74,10.32,5.64,15.18,8.93
		c1.34,0.91,2.63,1.88,3.79,3.01c0.08,0.08,0.14,0.14,0.2,0.19c-0.26-0.21-0.64-0.45,0.51,1.17
		C625.23,417.84,600.66,424.65,589.76,427.3z"/>
</g>
<g>
	<g>
		<path class="st2" d="M316.28,561.68l-5.37-21.02l2.69-0.69l5.37,21.02L316.28,561.68z M315.58,553.17l-0.72-2.81l6.14-1.57
			c0.88-0.23,1.5-0.74,1.86-1.54c0.36-0.8,0.41-1.74,0.13-2.82c-0.28-1.1-0.77-1.91-1.48-2.44c-0.7-0.53-1.49-0.68-2.37-0.46
			l-6.14,1.57l-0.72-2.81l6.05-1.54c1.16-0.3,2.24-0.29,3.24,0.03c1,0.31,1.86,0.89,2.59,1.73c0.73,0.84,1.26,1.91,1.59,3.21
			c0.33,1.29,0.38,2.48,0.15,3.57c-0.23,1.09-0.71,2-1.44,2.76c-0.73,0.75-1.67,1.27-2.83,1.57L315.58,553.17z"/>
		<path class="st2" d="M332.85,557.45l-5.37-21.02l2.69-0.69l5.37,21.02L332.85,557.45z M341.17,555.32l-2.32-9.09
			c-0.27-1.06-0.73-1.82-1.37-2.27c-0.65-0.45-1.43-0.56-2.34-0.33c-0.88,0.22-1.5,0.65-1.85,1.27c-0.35,0.62-0.41,1.39-0.18,2.31
			l-1.02-2.82c0.2-1,0.57-1.82,1.13-2.48c0.56-0.66,1.25-1.1,2.08-1.31c1.49-0.38,2.77-0.14,3.86,0.72
			c1.09,0.86,1.88,2.26,2.38,4.21l2.33,9.11L341.17,555.32z"/>
		<path class="st2" d="M353.26,552.46c-1.8,0.46-3.33,0.24-4.61-0.65c-1.28-0.89-2.18-2.37-2.71-4.44l-0.62-2.44
			c-0.52-2.05-0.44-3.77,0.26-5.15c0.7-1.38,1.94-2.3,3.74-2.76s3.33-0.25,4.6,0.63c1.27,0.88,2.17,2.34,2.7,4.39l0.64,2.49
			c0.53,2.06,0.44,3.79-0.25,5.17S355.06,552,353.26,552.46z M352.55,549.66c0.94-0.24,1.59-0.75,1.94-1.53s0.38-1.75,0.08-2.92
			l-0.64-2.49c-0.3-1.17-0.79-2-1.46-2.51c-0.68-0.5-1.49-0.64-2.43-0.4c-0.93,0.24-1.58,0.74-1.94,1.51s-0.39,1.74-0.09,2.9
			l0.64,2.49c0.3,1.17,0.79,2.01,1.47,2.52C350.8,549.76,351.61,549.89,352.55,549.66z"/>
		<path class="st2" d="M362.69,549.82l-3.84-15.01l2.69-0.69l3.84,15.01L362.69,549.82z M371.01,547.69l-2.32-9.09
			c-0.27-1.06-0.73-1.82-1.37-2.27c-0.65-0.45-1.43-0.56-2.34-0.33c-0.88,0.22-1.5,0.65-1.84,1.29c-0.35,0.63-0.41,1.41-0.17,2.34
			l-1.02-2.82c0.19-1.01,0.57-1.85,1.12-2.52s1.25-1.11,2.08-1.32c1.49-0.38,2.77-0.14,3.86,0.72s1.88,2.26,2.38,4.21l2.33,9.11
			L371.01,547.69z"/>
		<path class="st2" d="M382.2,545.11c-1.51,0.39-2.82,0.15-3.91-0.7s-1.89-2.25-2.39-4.19l-0.85-3.31c-0.5-1.95-0.48-3.56,0.05-4.83
			c0.53-1.27,1.53-2.09,2.99-2.47c0.81-0.21,1.61-0.17,2.4,0.13c0.79,0.29,1.5,0.8,2.13,1.54l0.51,3.14
			c-0.16-0.64-0.41-1.15-0.73-1.55s-0.72-0.67-1.18-0.8c-0.46-0.13-0.98-0.13-1.55,0.02c-0.89,0.23-1.5,0.71-1.83,1.44
			c-0.33,0.73-0.36,1.65-0.08,2.75l0.83,3.27c0.28,1.09,0.74,1.87,1.38,2.34c0.64,0.47,1.4,0.59,2.29,0.36
			c0.57-0.15,1.03-0.39,1.36-0.74s0.55-0.78,0.65-1.3c0.09-0.52,0.06-1.1-0.11-1.74l0.99,3.12c-0.07,0.74-0.34,1.45-0.81,2.14
			C383.89,544.39,383.17,544.86,382.2,545.11z M383.95,550.89c-1.03,0.26-2,0.29-2.93,0.08c-0.92-0.21-1.7-0.64-2.35-1.29l1.36-2.27
			c0.49,0.44,1.01,0.74,1.57,0.91c0.56,0.17,1.11,0.18,1.65,0.04c1.03-0.26,1.75-0.78,2.15-1.54c0.4-0.77,0.46-1.72,0.17-2.86
			l-3.83-14.99l2.69-0.69l3.72,14.56c0.53,2.08,0.43,3.83-0.3,5.23C387.13,549.47,385.82,550.41,383.95,550.89z"/>
		<path class="st2" d="M405.22,539.18c-1.88,0.48-3.49,0.29-4.81-0.59c-1.33-0.87-2.25-2.35-2.78-4.42l-0.63-2.47
			c-0.52-2.05-0.41-3.77,0.33-5.16c0.75-1.39,2.06-2.32,3.95-2.8c1.07-0.28,2.09-0.32,3.06-0.12s1.81,0.61,2.52,1.25l-1.45,2.4
			c-0.5-0.38-1.04-0.64-1.63-0.77c-0.59-0.13-1.17-0.12-1.74,0.03c-1.04,0.27-1.76,0.79-2.17,1.57c-0.41,0.78-0.47,1.75-0.17,2.91
			l0.63,2.47c0.3,1.19,0.82,2.03,1.56,2.53c0.74,0.5,1.62,0.62,2.66,0.35c0.57-0.15,1.08-0.42,1.53-0.84
			c0.45-0.41,0.79-0.92,1.04-1.53l2.47,1.56c-0.32,0.88-0.86,1.64-1.62,2.27C407.2,538.46,406.28,538.91,405.22,539.18z"/>
		<path class="st2" d="M420.84,534.96l-2.43-9.51c-0.25-0.98-0.69-1.69-1.31-2.11c-0.62-0.42-1.37-0.52-2.25-0.29
			c-0.54,0.14-1.04,0.36-1.52,0.67c-0.48,0.31-0.88,0.69-1.21,1.13l-2.34-0.97c0.34-0.82,0.89-1.52,1.65-2.12
			c0.75-0.6,1.65-1.03,2.69-1.29c1.72-0.44,3.17-0.29,4.36,0.44c1.19,0.73,2.01,1.99,2.47,3.76l2.46,9.64L420.84,534.96z
			 M417.54,536.03c-1.68,0.43-3.04,0.37-4.08-0.17s-1.75-1.61-2.15-3.18c-0.38-1.49-0.28-2.71,0.3-3.64
			c0.58-0.93,1.64-1.6,3.18-1.99l3.9-1l0.79,2.32l-4.07,1.04c-0.7,0.18-1.17,0.48-1.44,0.92s-0.31,1-0.13,1.7
			c0.19,0.76,0.57,1.27,1.13,1.51c0.56,0.25,1.31,0.25,2.24,0.01c1.02-0.26,1.76-0.58,2.21-0.95c0.45-0.37,0.61-0.81,0.48-1.32
			l0.82,2.04c-0.13,0.46-0.34,0.87-0.63,1.22c-0.29,0.35-0.64,0.65-1.06,0.89C418.61,535.69,418.11,535.89,417.54,536.03z
			 M413.77,517.7l-2.07-1.06l2.46-6.1l2.39,1.27L413.77,517.7z"/>
		<path class="st2" d="M433.08,532.06c-1.88,0.48-3.49,0.29-4.81-0.59c-1.33-0.87-2.25-2.35-2.78-4.42l-0.63-2.47
			c-0.52-2.05-0.41-3.77,0.33-5.16c0.75-1.39,2.06-2.32,3.95-2.8c1.07-0.27,2.09-0.31,3.06-0.12c0.97,0.19,1.81,0.61,2.52,1.25
			l-1.45,2.4c-0.5-0.38-1.04-0.64-1.63-0.77c-0.59-0.13-1.17-0.12-1.74,0.03c-1.04,0.27-1.76,0.79-2.17,1.57
			c-0.41,0.78-0.47,1.75-0.17,2.91l0.63,2.47c0.3,1.19,0.82,2.03,1.56,2.53c0.74,0.5,1.62,0.62,2.66,0.35
			c0.57-0.15,1.08-0.43,1.53-0.84c0.45-0.41,0.8-0.92,1.04-1.53l2.47,1.56c-0.32,0.88-0.86,1.64-1.62,2.27
			C435.06,531.34,434.14,531.79,433.08,532.06z"/>
		<path class="st2" d="M440.96,529.82l-5.37-21.02l2.69-0.69l5.37,21.02L440.96,529.82z M449.28,527.69l-2.32-9.09
			c-0.27-1.06-0.73-1.82-1.37-2.27c-0.65-0.45-1.43-0.56-2.34-0.33c-0.88,0.23-1.5,0.65-1.85,1.27c-0.35,0.62-0.41,1.39-0.18,2.31
			l-1.02-2.82c0.2-0.99,0.57-1.82,1.13-2.48c0.56-0.66,1.25-1.1,2.08-1.31c1.49-0.38,2.77-0.14,3.86,0.72
			c1.09,0.86,1.88,2.26,2.38,4.21l2.33,9.11L449.28,527.69z"/>
		<path class="st2" d="M466.94,518.6l0.62-11.57l2.81-0.72l-1.31,16.33l-2.03,0.52l-8.98-13.69l2.81-0.72L466.94,518.6z"/>
		<path class="st2" d="M475.71,504.95l2.33,9.12c0.27,1.05,0.72,1.8,1.36,2.25c0.64,0.45,1.4,0.56,2.29,0.33
			c0.89-0.23,1.51-0.66,1.86-1.3c0.35-0.64,0.4-1.42,0.16-2.36l0.99,3.09c-0.07,0.74-0.35,1.45-0.83,2.14
			c-0.48,0.69-1.22,1.17-2.21,1.42c-1.51,0.39-2.82,0.15-3.91-0.7c-1.1-0.86-1.89-2.25-2.39-4.19l-2.33-9.12L475.71,504.95z
			 M485.11,518.53l-3.83-15.01l2.68-0.68l3.84,15.01L485.11,518.53z M484.44,504.94l-2.55,0.65l-0.53-2.08l2.11-0.54
			c0.54-0.14,0.92-0.42,1.13-0.85c0.21-0.43,0.23-0.96,0.06-1.59l-0.27-1.07l2.63-0.67l0.35,1.36c0.31,1.2,0.21,2.23-0.3,3.06
			C486.55,504.04,485.68,504.62,484.44,504.94z"/>
		<path class="st2" d="M498.93,515.24c-1.8,0.46-3.33,0.24-4.61-0.65c-1.28-0.89-2.18-2.37-2.71-4.44l-0.62-2.44
			c-0.53-2.05-0.44-3.77,0.26-5.15c0.7-1.38,1.94-2.3,3.74-2.76s3.33-0.25,4.6,0.63c1.27,0.88,2.17,2.34,2.7,4.39l0.64,2.49
			c0.53,2.06,0.44,3.79-0.25,5.17S500.72,514.78,498.93,515.24z M498.21,512.43c0.94-0.24,1.59-0.75,1.94-1.53
			c0.35-0.78,0.38-1.75,0.08-2.92l-0.64-2.49c-0.3-1.17-0.79-2-1.46-2.51c-0.68-0.5-1.49-0.64-2.43-0.4
			c-0.93,0.24-1.58,0.74-1.94,1.51c-0.36,0.77-0.39,1.74-0.09,2.9l0.63,2.49c0.3,1.17,0.79,2.01,1.47,2.52
			C496.47,512.53,497.28,512.67,498.21,512.43z M496.86,501.76l-0.53-2.08l1.98-0.51c0.55-0.14,0.92-0.42,1.13-0.85
			c0.21-0.43,0.23-0.96,0.06-1.6l-0.27-1.07l2.63-0.67l0.35,1.36c0.31,1.21,0.21,2.23-0.3,3.06c-0.51,0.84-1.38,1.42-2.62,1.73
			L496.86,501.76z M499.1,521.49l-0.75-2.95l2.69-0.69l0.75,2.95L499.1,521.49z"/>
		<path class="st2" d="M504.24,500.49l-0.68-2.66l6.18-1.58l0.68,2.66L504.24,500.49z M512.04,511.73c-1.13,0.29-2.03,0.16-2.71-0.4
			c-0.68-0.55-1.19-1.47-1.51-2.75l-3.95-15.47l2.69-0.69l3.96,15.5c0.09,0.36,0.23,0.62,0.41,0.79c0.18,0.17,0.4,0.22,0.66,0.16
			l1.29-0.33l0.72,2.8L512.04,511.73z"/>
		<path class="st2" d="M520.33,496.38l-0.68-2.66l6.18-1.58l0.68,2.66L520.33,496.38z M528.12,507.62c-1.13,0.29-2.03,0.15-2.71-0.4
			c-0.68-0.56-1.19-1.47-1.51-2.75l-3.95-15.47l2.69-0.69l3.96,15.5c0.09,0.36,0.23,0.62,0.41,0.79c0.18,0.17,0.4,0.22,0.66,0.16
			l1.29-0.33l0.72,2.8L528.12,507.62z"/>
		<path class="st2" d="M533.36,506.21l-5.37-21.02l2.69-0.69l5.37,21.02L533.36,506.21z M541.68,504.08l-2.32-9.09
			c-0.27-1.06-0.73-1.82-1.37-2.27c-0.65-0.45-1.43-0.56-2.34-0.33c-0.88,0.22-1.5,0.65-1.85,1.27c-0.35,0.62-0.41,1.39-0.18,2.31
			l-1.02-2.82c0.2-0.99,0.57-1.82,1.13-2.48c0.56-0.66,1.25-1.1,2.08-1.31c1.49-0.38,2.77-0.14,3.86,0.72
			c1.09,0.86,1.88,2.26,2.38,4.21l2.33,9.11L541.68,504.08z"/>
		<path class="st2" d="M548.84,483.18l-5.27-3.83l1.49-2.26l5.09,4.17L548.84,483.18z M553.77,501.22c-1.8,0.46-3.33,0.24-4.61-0.65
			c-1.28-0.89-2.18-2.37-2.71-4.44l-0.62-2.44c-0.53-2.05-0.44-3.77,0.26-5.15c0.7-1.38,1.94-2.3,3.74-2.76s3.33-0.25,4.6,0.63
			c1.27,0.88,2.17,2.34,2.7,4.39l0.64,2.49c0.53,2.06,0.44,3.79-0.25,5.17S555.57,500.76,553.77,501.22z M553.06,498.41
			c0.94-0.24,1.59-0.75,1.94-1.53c0.35-0.78,0.38-1.75,0.08-2.92l-0.64-2.49c-0.3-1.17-0.79-2-1.46-2.51
			c-0.68-0.5-1.49-0.64-2.43-0.4c-0.93,0.24-1.58,0.74-1.94,1.51c-0.36,0.77-0.39,1.74-0.09,2.9l0.64,2.49
			c0.3,1.17,0.79,2.01,1.47,2.52C551.31,498.51,552.12,498.65,553.06,498.41z M551.71,487.75l-0.53-2.08l1.98-0.51
			c0.55-0.14,0.92-0.42,1.13-0.85c0.21-0.43,0.23-0.96,0.06-1.6l-0.27-1.07l2.63-0.67l0.35,1.36c0.31,1.2,0.21,2.23-0.3,3.06
			c-0.51,0.84-1.38,1.42-2.62,1.73L551.71,487.75z"/>
		<path class="st2" d="M558.69,480.48l-0.75-2.95l2.69-0.69l0.75,2.95L558.69,480.48z M563.3,498.55l-3.84-15.01l2.69-0.69
			l3.84,15.01L563.3,498.55z"/>
		<path class="st2" d="M581.76,494.11c-1.51,0.39-2.82,0.15-3.91-0.7c-1.1-0.85-1.89-2.25-2.39-4.19l-0.85-3.31
			c-0.5-1.95-0.48-3.56,0.05-4.83c0.53-1.27,1.53-2.09,2.99-2.47c0.81-0.21,1.61-0.17,2.4,0.12c0.79,0.29,1.5,0.8,2.13,1.54
			l0.51,3.14c-0.16-0.64-0.41-1.15-0.73-1.55c-0.33-0.4-0.72-0.66-1.18-0.8c-0.46-0.13-0.98-0.13-1.55,0.02
			c-0.89,0.23-1.5,0.71-1.83,1.44c-0.33,0.73-0.36,1.65-0.08,2.75l0.84,3.27c0.28,1.09,0.74,1.87,1.38,2.34s1.4,0.59,2.29,0.36
			c0.57-0.15,1.03-0.39,1.36-0.74c0.34-0.35,0.55-0.78,0.65-1.3c0.09-0.52,0.06-1.1-0.11-1.74l0.99,3.12
			c-0.07,0.74-0.34,1.45-0.81,2.14S582.73,493.87,581.76,494.11z M583.51,499.89c-1.03,0.26-2,0.29-2.93,0.08s-1.7-0.64-2.35-1.29
			l1.36-2.27c0.49,0.44,1.01,0.74,1.57,0.91c0.56,0.17,1.11,0.18,1.65,0.04c1.03-0.26,1.75-0.78,2.15-1.54
			c0.4-0.77,0.46-1.72,0.17-2.86l-3.83-15l2.69-0.69l3.72,14.56c0.53,2.08,0.43,3.83-0.3,5.23
			C586.69,498.47,585.38,499.41,583.51,499.89z"/>
		<path class="st2" d="M587.31,473.16l-0.75-2.95l2.69-0.69l0.75,2.95L587.31,473.16z M591.93,491.24l-3.83-15.01l2.69-0.69
			l3.83,15.01L591.93,491.24z"/>
		<path class="st2" d="M606.45,487.53l-2.43-9.51c-0.25-0.98-0.69-1.69-1.31-2.11c-0.62-0.42-1.37-0.52-2.25-0.29
			c-0.54,0.14-1.04,0.36-1.52,0.67c-0.48,0.31-0.88,0.69-1.21,1.13l-2.34-0.97c0.34-0.82,0.89-1.52,1.64-2.12
			c0.75-0.6,1.65-1.03,2.69-1.3c1.72-0.44,3.17-0.29,4.36,0.44c1.19,0.73,2.01,1.99,2.47,3.76l2.46,9.64L606.45,487.53z
			 M603.16,488.6c-1.68,0.43-3.04,0.37-4.07-0.17c-1.04-0.55-1.75-1.61-2.16-3.18c-0.38-1.49-0.28-2.71,0.3-3.64
			c0.58-0.93,1.64-1.6,3.18-1.99l3.9-1l0.79,2.32l-4.07,1.04c-0.7,0.18-1.18,0.48-1.44,0.92s-0.31,1-0.13,1.71
			c0.2,0.76,0.57,1.27,1.13,1.51c0.56,0.25,1.31,0.25,2.24,0.01c1.02-0.26,1.76-0.58,2.2-0.95c0.45-0.37,0.61-0.81,0.48-1.32
			l0.82,2.04c-0.13,0.46-0.34,0.87-0.63,1.22c-0.29,0.35-0.64,0.65-1.06,0.89C604.22,488.26,603.73,488.45,603.16,488.6z"/>
		<path class="st2" d="M613.11,485.82l-3.84-15.01l2.69-0.69l3.84,15.01L613.11,485.82z M621.43,483.7l-2.32-9.09
			c-0.27-1.06-0.73-1.82-1.37-2.27c-0.64-0.45-1.43-0.56-2.34-0.33c-0.88,0.22-1.5,0.65-1.85,1.29c-0.35,0.63-0.4,1.41-0.17,2.34
			l-1.02-2.82c0.19-1.01,0.57-1.85,1.12-2.52c0.56-0.67,1.25-1.11,2.08-1.32c1.49-0.38,2.77-0.14,3.86,0.72
			c1.09,0.86,1.88,2.26,2.38,4.21l2.33,9.11L621.43,483.7z"/>
	</g>
</g>
</svg>
